<svg width="1440" height="219" viewBox="0 0 1440 219" fill="none" xmlns="http://www.w3.org/2000/svg">
<path d="M1440.88 219L1416.87 210.864C1392.85 203.031 1344.82 186.302 1296.79 162.197C1248.76 137.635 1200.73 105.698 1152.7 105.47C1104.68 105.698 1056.65 137.635 1008.62 150.03C960.587 161.969 912.558 154.365 864.529 137.864C816.499 121.667 768.47 97.3333 720.441 105.47C672.411 113.302 624.382 154.365 576.352 154.136C528.323 154.365 480.294 113.302 432.264 117.636C384.235 121.667 336.206 170.333 288.176 194.667C240.147 219 192.118 219 144.088 214.97C96.0587 210.635 48.0294 203.031 24.0148 198.697L0 194.667V0H24.0148C48.0294 0 96.0587 0 144.088 0C192.118 0 240.147 0 288.176 0C336.206 0 384.235 0 432.264 0C480.294 0 528.323 0 576.352 0C624.382 0 672.411 0 720.441 0C768.47 0 816.499 0 864.529 0C912.558 0 960.587 0 1008.62 0C1056.65 0 1104.68 0 1152.7 0C1200.73 0 1248.76 0 1296.79 0C1344.82 0 1392.85 0 1416.87 0H1440.88V219Z" fill="#9747FF" fill-opacity="0.3"/>
<path d="M1440.88 219L1416.87 210.864C1392.85 203.031 1344.82 186.302 1296.79 162.197C1248.76 137.635 1200.73 105.698 1152.7 105.47C1104.68 105.698 1056.65 137.635 1008.62 150.03C960.587 161.969 912.558 154.365 864.529 137.864C816.499 121.667 768.47 97.3333 720.441 105.47C672.411 113.302 624.382 154.365 576.352 154.136C528.323 154.365 480.294 113.302 432.264 117.636C384.235 121.667 336.206 170.333 288.176 194.667C240.147 219 192.118 219 144.088 214.97C96.0587 210.635 48.0294 203.031 24.0148 198.697L0 194.667V0H24.0148C48.0294 0 96.0587 0 144.088 0C192.118 0 240.147 0 288.176 0C336.206 0 384.235 0 432.264 0C480.294 0 528.323 0 576.352 0C624.382 0 672.411 0 720.441 0C768.47 0 816.499 0 864.529 0C912.558 0 960.587 0 1008.62 0C1056.65 0 1104.68 0 1152.7 0C1200.73 0 1248.76 0 1296.79 0C1344.82 0 1392.85 0 1416.87 0H1440.88V219Z" fill="#9747FF" fill-opacity="0.3"/>
<path d="M2 166.261L26 160.084C50 154.138 98 141.438 146 123.137C194 104.491 242 80.2441 290 80.0709C338 80.2441 386 104.491 434 113.9C482 122.964 530 117.191 578 104.664C626 92.3673 674 73.8939 722 80.0709C770 86.0171 818 117.191 866 117.018C914 117.191 962 86.0171 1010 89.3077C1058 92.3673 1106 129.314 1154 147.788C1202 166.261 1250 166.261 1298 163.202C1346 159.911 1394 154.138 1418 150.847L1442 147.788V0H1418C1394 0 1346 0 1298 0C1250 0 1202 0 1154 0C1106 0 1058 0 1010 0C962 0 914 0 866 0C818 0 770 0 722 0C674 0 626 0 578 0C530 0 482 0 434 0C386 0 338 0 290 0C242 0 194 0 146 0C98 0 50 0 26 0H2V166.261Z" fill="#9747FF" fill-opacity="0.3"/>
</svg>
