<svg width="1440" height="149" viewBox="0 0 1440 149" fill="none" xmlns="http://www.w3.org/2000/svg">
<path d="M0 0L24.0167 5.53576C48.0333 10.8646 96.0667 22.2465 144.1 38.6469C192.133 55.3576 240.167 77.0868 288.2 77.242C336.233 77.0868 384.267 55.3576 432.3 46.9247C480.333 38.8021 528.367 43.9757 576.4 55.2024C624.433 66.2222 672.467 82.7778 720.5 77.242C768.533 71.9132 816.567 43.9757 864.6 44.1309C912.633 43.9757 960.667 71.9132 1008.7 68.9642C1056.73 66.2222 1104.77 33.1111 1152.8 16.5556C1200.83 0 1248.87 -7.15256e-07 1296.9 2.74201C1344.93 5.69097 1392.97 10.8646 1416.98 13.8135L1441 16.5556V149H1416.98C1392.97 149 1344.93 149 1296.9 149C1248.87 149 1200.83 149 1152.8 149C1104.77 149 1056.73 149 1008.7 149C960.667 149 912.633 149 864.6 149C816.567 149 768.533 149 720.5 149C672.467 149 624.433 149 576.4 149C528.367 149 480.333 149 432.3 149C384.267 149 336.233 149 288.2 149C240.167 149 192.133 149 144.1 149C96.0667 149 48.0333 149 24.0167 149H0V0Z" fill="#9747FF" fill-opacity="0.3"/>
</svg>
